<mxfile host="app.diagrams.net" agent="Mozilla/5.0 (Windows NT 10.0; Win64; x64) AppleWebKit/537.36 (KHTML, like Gecko) Chrome/134.0.0.0 Safari/537.36" version="26.1.1">
  <diagram name="Page-1" id="qbdHW05VsGeXrV6z7tRG">
    <mxGraphModel dx="903" dy="574" grid="1" gridSize="10" guides="1" tooltips="1" connect="1" arrows="1" fold="1" page="1" pageScale="1" pageWidth="850" pageHeight="1100" math="0" shadow="0">
      <root>
        <mxCell id="0" />
        <mxCell id="1" parent="0" />
        <mxCell id="NZ9PRQHnBUpvd1Ys8po5-1" value="" style="rounded=0;whiteSpace=wrap;html=1;imageWidth=1980;imageHeight=720;" vertex="1" parent="1">
          <mxGeometry x="150" y="520" width="470" height="300" as="geometry" />
        </mxCell>
        <mxCell id="NZ9PRQHnBUpvd1Ys8po5-2" value="username" style="strokeWidth=1;shadow=0;dashed=0;align=center;html=1;shape=mxgraph.mockup.text.textBox;fontColor=#666666;align=left;fontSize=17;spacingLeft=4;spacingTop=-3;whiteSpace=wrap;strokeColor=#666666;mainText=" vertex="1" parent="1">
          <mxGeometry x="219" y="595" width="150" height="30" as="geometry" />
        </mxCell>
        <mxCell id="NZ9PRQHnBUpvd1Ys8po5-3" value="password" style="strokeWidth=1;shadow=0;dashed=0;align=center;html=1;shape=mxgraph.mockup.text.textBox;fontColor=#666666;align=left;fontSize=17;spacingLeft=4;spacingTop=-3;whiteSpace=wrap;strokeColor=#666666;mainText=" vertex="1" parent="1">
          <mxGeometry x="219" y="640" width="150" height="30" as="geometry" />
        </mxCell>
        <mxCell id="NZ9PRQHnBUpvd1Ys8po5-4" value="LOG IN" style="rounded=1;html=1;shadow=0;dashed=0;whiteSpace=wrap;fontSize=10;fillColor=#666666;align=center;strokeColor=#4D4D4D;fontColor=#ffffff;" vertex="1" parent="1">
          <mxGeometry x="241.25" y="695" width="105.5" height="16.88" as="geometry" />
        </mxCell>
        <mxCell id="NZ9PRQHnBUpvd1Ys8po5-6" value="" style="rounded=0;whiteSpace=wrap;html=1;imageWidth=1980;imageHeight=720;" vertex="1" parent="1">
          <mxGeometry x="150" y="860" width="470" height="300" as="geometry" />
        </mxCell>
        <mxCell id="NZ9PRQHnBUpvd1Ys8po5-7" value="Full Name" style="strokeWidth=1;shadow=0;dashed=0;align=center;html=1;shape=mxgraph.mockup.text.textBox;fontColor=#666666;align=left;fontSize=17;spacingLeft=4;spacingTop=-3;whiteSpace=wrap;strokeColor=#666666;mainText=" vertex="1" parent="1">
          <mxGeometry x="430" y="900" width="150" height="30" as="geometry" />
        </mxCell>
        <mxCell id="NZ9PRQHnBUpvd1Ys8po5-8" value="username" style="strokeWidth=1;shadow=0;dashed=0;align=center;html=1;shape=mxgraph.mockup.text.textBox;fontColor=#666666;align=left;fontSize=17;spacingLeft=4;spacingTop=-3;whiteSpace=wrap;strokeColor=#666666;mainText=" vertex="1" parent="1">
          <mxGeometry x="430" y="940" width="150" height="30" as="geometry" />
        </mxCell>
        <mxCell id="NZ9PRQHnBUpvd1Ys8po5-10" value="password" style="strokeWidth=1;shadow=0;dashed=0;align=center;html=1;shape=mxgraph.mockup.text.textBox;fontColor=#666666;align=left;fontSize=17;spacingLeft=4;spacingTop=-3;whiteSpace=wrap;strokeColor=#666666;mainText=" vertex="1" parent="1">
          <mxGeometry x="430" y="980" width="150" height="30" as="geometry" />
        </mxCell>
        <mxCell id="NZ9PRQHnBUpvd1Ys8po5-11" value="confirm password" style="strokeWidth=1;shadow=0;dashed=0;align=center;html=1;shape=mxgraph.mockup.text.textBox;fontColor=#666666;align=left;fontSize=17;spacingLeft=4;spacingTop=-3;whiteSpace=wrap;strokeColor=#666666;mainText=" vertex="1" parent="1">
          <mxGeometry x="430" y="1020" width="150" height="30" as="geometry" />
        </mxCell>
        <mxCell id="NZ9PRQHnBUpvd1Ys8po5-14" value="Register" style="rounded=1;html=1;shadow=0;dashed=0;whiteSpace=wrap;fontSize=10;fillColor=#666666;align=center;strokeColor=#4D4D4D;fontColor=#ffffff;" vertex="1" parent="1">
          <mxGeometry x="241.25" y="735" width="105.5" height="16.88" as="geometry" />
        </mxCell>
        <mxCell id="NZ9PRQHnBUpvd1Ys8po5-5" value="Register" style="rounded=1;html=1;shadow=0;dashed=0;whiteSpace=wrap;fontSize=10;fillColor=#666666;align=center;strokeColor=#4D4D4D;fontColor=#ffffff;" vertex="1" parent="1">
          <mxGeometry x="452.25" y="1083" width="105.5" height="16.88" as="geometry" />
        </mxCell>
        <mxCell id="NZ9PRQHnBUpvd1Ys8po5-21" value="" style="rounded=0;whiteSpace=wrap;html=1;" vertex="1" parent="1">
          <mxGeometry x="150" y="1230" width="470" height="300" as="geometry" />
        </mxCell>
        <mxCell id="NZ9PRQHnBUpvd1Ys8po5-22" value="account" style="rounded=0;whiteSpace=wrap;html=1;fillColor=#d80073;fontColor=#ffffff;strokeColor=#A50040;" vertex="1" parent="1">
          <mxGeometry x="540" y="1230" width="80" height="60" as="geometry" />
        </mxCell>
        <mxCell id="NZ9PRQHnBUpvd1Ys8po5-23" value="add group" style="rounded=0;whiteSpace=wrap;html=1;fillColor=#008a00;fontColor=#ffffff;strokeColor=#005700;" vertex="1" parent="1">
          <mxGeometry x="460" y="1230" width="80" height="60" as="geometry" />
        </mxCell>
        <mxCell id="NZ9PRQHnBUpvd1Ys8po5-24" value="group name&lt;br&gt;you are owed $$$&lt;br&gt;you owe $$$" style="rounded=0;whiteSpace=wrap;html=1;fillColor=#e51400;fontColor=#ffffff;strokeColor=#B20000;" vertex="1" parent="1">
          <mxGeometry x="165" y="1300" width="440" height="40" as="geometry" />
        </mxCell>
        <mxCell id="NZ9PRQHnBUpvd1Ys8po5-25" value="" style="rounded=0;whiteSpace=wrap;html=1;fillColor=#e51400;fontColor=#ffffff;strokeColor=#B20000;" vertex="1" parent="1">
          <mxGeometry x="165" y="1340" width="440" height="40" as="geometry" />
        </mxCell>
        <mxCell id="NZ9PRQHnBUpvd1Ys8po5-26" value="" style="rounded=0;whiteSpace=wrap;html=1;fillColor=#e51400;fontColor=#ffffff;strokeColor=#B20000;" vertex="1" parent="1">
          <mxGeometry x="165" y="1380" width="440" height="40" as="geometry" />
        </mxCell>
        <mxCell id="NZ9PRQHnBUpvd1Ys8po5-27" value="" style="rounded=0;whiteSpace=wrap;html=1;fillColor=#e51400;fontColor=#ffffff;strokeColor=#B20000;" vertex="1" parent="1">
          <mxGeometry x="165" y="1420" width="440" height="40" as="geometry" />
        </mxCell>
        <mxCell id="NZ9PRQHnBUpvd1Ys8po5-28" value="" style="rounded=0;whiteSpace=wrap;html=1;fillColor=#e51400;fontColor=#ffffff;strokeColor=#B20000;" vertex="1" parent="1">
          <mxGeometry x="165" y="1460" width="440" height="40" as="geometry" />
        </mxCell>
        <mxCell id="NZ9PRQHnBUpvd1Ys8po5-29" value="overall you are owed" style="rounded=0;whiteSpace=wrap;html=1;fillColor=#d80073;fontColor=#ffffff;strokeColor=#A50040;" vertex="1" parent="1">
          <mxGeometry x="150" y="1230" width="170" height="60" as="geometry" />
        </mxCell>
        <mxCell id="NZ9PRQHnBUpvd1Ys8po5-30" value="search" style="rounded=0;whiteSpace=wrap;html=1;fillColor=#d80073;fontColor=#ffffff;strokeColor=#A50040;" vertex="1" parent="1">
          <mxGeometry x="390" y="1230" width="70" height="60" as="geometry" />
        </mxCell>
        <mxCell id="NZ9PRQHnBUpvd1Ys8po5-31" value="" style="rounded=0;whiteSpace=wrap;html=1;" vertex="1" parent="1">
          <mxGeometry x="150" y="1570" width="470" height="300" as="geometry" />
        </mxCell>
        <mxCell id="NZ9PRQHnBUpvd1Ys8po5-33" value="group name" style="strokeWidth=1;shadow=0;dashed=0;align=center;html=1;shape=mxgraph.mockup.text.textBox;fontColor=#666666;align=left;fontSize=17;spacingLeft=4;spacingTop=-3;whiteSpace=wrap;strokeColor=#666666;mainText=" vertex="1" parent="1">
          <mxGeometry x="290" y="1610" width="150" height="30" as="geometry" />
        </mxCell>
        <mxCell id="NZ9PRQHnBUpvd1Ys8po5-34" value="friend name" style="strokeWidth=1;shadow=0;dashed=0;align=center;html=1;shape=mxgraph.mockup.text.textBox;fontColor=#666666;align=left;fontSize=17;spacingLeft=4;spacingTop=-3;whiteSpace=wrap;strokeColor=#666666;mainText=" vertex="1" parent="1">
          <mxGeometry x="290" y="1660" width="150" height="30" as="geometry" />
        </mxCell>
        <mxCell id="NZ9PRQHnBUpvd1Ys8po5-35" value="ADD" style="rounded=1;fillColor=#0057D8;align=center;strokeColor=none;html=1;whiteSpace=wrap;fontColor=#ffffff;fontSize=12;sketch=0;" vertex="1" parent="1">
          <mxGeometry x="474.5" y="1658.5" width="86" height="33" as="geometry" />
        </mxCell>
        <mxCell id="NZ9PRQHnBUpvd1Ys8po5-36" value="" style="html=1;shadow=0;dashed=0;shape=mxgraph.atlassian.checkbox;fillColor=#008465;strokeColor=none;html=1;sketch=0;" vertex="1" parent="1">
          <mxGeometry x="449.5" y="1667.5" width="14" height="14" as="geometry" />
        </mxCell>
        <mxCell id="NZ9PRQHnBUpvd1Ys8po5-37" value="added friends" style="swimlane;fontStyle=0;childLayout=stackLayout;horizontal=1;startSize=30;horizontalStack=0;resizeParent=1;resizeParentMax=0;resizeLast=0;collapsible=1;marginBottom=0;whiteSpace=wrap;html=1;" vertex="1" parent="1">
          <mxGeometry x="290" y="1710" width="140" height="120" as="geometry" />
        </mxCell>
        <mxCell id="NZ9PRQHnBUpvd1Ys8po5-38" value="friend 1&lt;span style=&quot;white-space: pre;&quot;&gt;&#x9;&lt;/span&gt;" style="text;strokeColor=none;fillColor=none;align=left;verticalAlign=middle;spacingLeft=4;spacingRight=4;overflow=hidden;points=[[0,0.5],[1,0.5]];portConstraint=eastwest;rotatable=0;whiteSpace=wrap;html=1;" vertex="1" parent="NZ9PRQHnBUpvd1Ys8po5-37">
          <mxGeometry y="30" width="140" height="30" as="geometry" />
        </mxCell>
        <mxCell id="NZ9PRQHnBUpvd1Ys8po5-39" value="friend&amp;nbsp;&lt;span style=&quot;background-color: transparent; color: light-dark(rgb(0, 0, 0), rgb(255, 255, 255));&quot;&gt;2&lt;/span&gt;" style="text;strokeColor=none;fillColor=none;align=left;verticalAlign=middle;spacingLeft=4;spacingRight=4;overflow=hidden;points=[[0,0.5],[1,0.5]];portConstraint=eastwest;rotatable=0;whiteSpace=wrap;html=1;" vertex="1" parent="NZ9PRQHnBUpvd1Ys8po5-37">
          <mxGeometry y="60" width="140" height="30" as="geometry" />
        </mxCell>
        <mxCell id="NZ9PRQHnBUpvd1Ys8po5-40" value="friend 3" style="text;strokeColor=none;fillColor=none;align=left;verticalAlign=middle;spacingLeft=4;spacingRight=4;overflow=hidden;points=[[0,0.5],[1,0.5]];portConstraint=eastwest;rotatable=0;whiteSpace=wrap;html=1;" vertex="1" parent="NZ9PRQHnBUpvd1Ys8po5-37">
          <mxGeometry y="90" width="140" height="30" as="geometry" />
        </mxCell>
        <mxCell id="NZ9PRQHnBUpvd1Ys8po5-41" value="" style="rounded=0;whiteSpace=wrap;html=1;" vertex="1" parent="1">
          <mxGeometry x="150" y="1900" width="470" height="300" as="geometry" />
        </mxCell>
        <mxCell id="NZ9PRQHnBUpvd1Ys8po5-42" value="description" style="strokeWidth=1;shadow=0;dashed=0;align=center;html=1;shape=mxgraph.mockup.text.textBox;fontColor=#666666;align=left;fontSize=17;spacingLeft=4;spacingTop=-3;whiteSpace=wrap;strokeColor=#666666;mainText=" vertex="1" parent="1">
          <mxGeometry x="290" y="1940" width="150" height="30" as="geometry" />
        </mxCell>
        <mxCell id="NZ9PRQHnBUpvd1Ys8po5-43" value="amount" style="strokeWidth=1;shadow=0;dashed=0;align=center;html=1;shape=mxgraph.mockup.text.textBox;fontColor=#666666;align=left;fontSize=17;spacingLeft=4;spacingTop=-3;whiteSpace=wrap;strokeColor=#666666;mainText=" vertex="1" parent="1">
          <mxGeometry x="290" y="1980" width="150" height="30" as="geometry" />
        </mxCell>
        <mxCell id="NZ9PRQHnBUpvd1Ys8po5-44" value="split" style="text;html=1;align=center;verticalAlign=middle;whiteSpace=wrap;rounded=0;" vertex="1" parent="1">
          <mxGeometry x="219" y="2030" width="60" height="30" as="geometry" />
        </mxCell>
        <mxCell id="NZ9PRQHnBUpvd1Ys8po5-45" value="evenly" style="rounded=1;fillColor=#0057D8;strokeColor=none;html=1;whiteSpace=wrap;fontColor=#ffffff;align=center;verticalAlign=middle;fontStyle=0;fontSize=12;sketch=0;" vertex="1" parent="1">
          <mxGeometry x="283" y="2027" width="86" height="33" as="geometry" />
        </mxCell>
        <mxCell id="NZ9PRQHnBUpvd1Ys8po5-46" value="unevenly" style="rounded=1;fillColor=#0057D8;strokeColor=none;html=1;whiteSpace=wrap;fontColor=#ffffff;align=center;verticalAlign=middle;fontStyle=0;fontSize=12;sketch=0;" vertex="1" parent="1">
          <mxGeometry x="377.5" y="2027" width="86" height="33" as="geometry" />
        </mxCell>
      </root>
    </mxGraphModel>
  </diagram>
</mxfile>
